<svg xmlns="http://www.w3.org/2000/svg" version="1.0" viewBox="0 0 1299 950"><g stroke-width="2" fill="none" stroke="gray"><path vector-effect="non-scaling-stroke" d="m652.06 134.63-.1-58.09a.51.51 89.8 0 0-.51-.51l-88.93.02a.51.5 90 0 0-.5.51l-.01 165.67a1.41 1.35 65.9 0 1-.32.89L189.23 687.44q-.45.54.26.54l50.97-.02a1.1 1.07-69.4 0 0 .83-.39L803.7 16.65q.33-.38-.18-.4-25.53-.57-51.07-.09a1.11 1.05 18.1 0 0-.82.39l-99.11 118.24q-.46.55-.46-.16M957.52 16.45c-187.75 223.63-375.39 447.34-562.98 671.1q-.38.45.21.45h129.56a.61.6 20 0 0 .46-.21l563.2-671.33q.37-.43-.2-.43l-129.42.04a1.1 1.06 19.4 0 0-.83.38M940 447.27a.27.27 0 0 0-.27-.27h-83.46a.27.27 0 0 0-.27.27v83.46a.27.27 0 0 0 .27.27h83.46a.27.27 0 0 0 .27-.27v-83.46m120 0a.27.27 0 0 0-.27-.27h-83.46a.27.27 0 0 0-.27.27v83.46a.27.27 0 0 0 .27.27h83.46a.27.27 0 0 0 .27-.27v-83.46m-120 128a.27.27 0 0 0-.27-.27h-83.46a.27.27 0 0 0-.27.27v83.46a.27.27 0 0 0 .27.27h83.46a.27.27 0 0 0 .27-.27v-83.46m120 0a.27.27 0 0 0-.27-.27h-83.46a.27.27 0 0 0-.27.27v83.46a.27.27 0 0 0 .27.27h83.46a.27.27 0 0 0 .27-.27v-83.46M20.97 895.67c-5.34-3.08-2.51 7.71-2.06 9.4q2.65 9.86 5.17 19.68.63 2.45 2.92 3.52 17.84 8.29 36.9 6.12c39.45-4.48 55.62-50.93 17.92-71.88-7.78-4.32-15.75-6.41-23.98-9.53-5.41-2.05-11.9-4.08-16.03-6.97-18.54-12.93-10.46-40.02 12.26-40.92 13.93-.56 31.29 6.8 37.15 20.42 1.24 2.89 2.51 7.18 4.4 8.25q1.52.85 2.16-.34 1-1.84.64-3.89-2.24-12.81-3.52-24.72-.13-1.23-1.71-1.73a1.15.91-49.1 0 0-.88.17l-3.14 2.15a1.14 1.1 33.5 0 1-.91.17c-4.09-.94-8.22-3.33-11.48-4.29-25.31-7.48-59.9 5.1-55.85 37.31 3.16 25.11 32.45 31.7 52.06 38.93 3.99 1.47 9.68 4.06 12.85 7.42 11.02 11.7 8.5 28.11-3.74 37.46-13.08 9.99-31.47 8.08-44.27-1.75-8.62-6.63-12.13-13.52-15.77-23.67a2.5 2.44 5.9 0 0-1.09-1.31M863.49 890c6.62 22.16 25.83 38.72 48.44 43.2 31.99 6.33 63.04-4.51 78.44-33.66 8.04-15.2 10.02-35.1 6.11-51.52-11.38-47.75-68.36-60.93-106.28-37.74-26.73 16.34-35.26 51.11-26.71 79.72m-654.27-10.71q.37-.88.75 0 12.16 28.46 24.62 56.79c3.55 8.07 7.93-3.21 9.47-6.77 17.2-39.67 33.99-79.57 51.68-119.02q2.14-4.76 6.87-6.64c3.51-1.39 2.27-3.95-1-3.55q-15.21 1.9-30.43.05c-3.59-.44-3.37 2.56-.07 3.29q3.31.73 6.61 2.13 2.91 1.24 3.26 4.38c.18 1.68-.38 4.67-.99 6.61-9.65 30.97-22.92 64.05-35.66 93.01q-.66 1.51-1.49 2.7-1.23 1.75-2.33-.08-1.58-2.6-2.68-5.26-9.77-23.53-19.48-47.26a2.19 2.15 45.4 0 1 0-1.63q9.55-23.51 19.44-46.48 2.9-6.72 9.49-8.19a1.4 1.17 7.2 0 0 .79-.51c1.74-2.52-1.34-2.94-3.03-2.71q-12.6 1.74-25.17.02c-1.49-.21-4.55-.2-3.48 2.17a1.29 1.08.8 0 0 .72.62c5.57 1.89 11.52 1.87 9.44 10.1-3.1 12.3-7.83 23.05-12.93 34.14q-.31.68-.59-.01-5.46-13.65-10.7-27.22c-2.99-7.71-4.6-13.23 4.25-16.84a1.44 1.12-3.7 0 0 .71-.63c1.03-2.24-1.64-2.52-3.16-2.39-12.87 1.16-23.85.54-36.02-.01-1.76-.08-5.37.05-3.77 2.83a1.36 1.15-3.6 0 0 .75.56c4.86 1.39 11.53 1.39 14.58 5.83q1.55 2.26 4.61 9.27 10.53 24.11 20.56 48.46a1.2 1.16 45.8 0 1 0 .91l-17.82 42.32a1.1.85-80.7 0 1-.67.62c-2.93.63-31.86-74.67-35.38-83.6q-3.34-8.48-4.97-14.47c-1.62-6.01 1.65-7.53 6.52-9.19a1.43 1.14.9 0 0 .74-.57c1.26-2.09-.54-3.12-2.47-2.93q-19.35 1.86-38.74-.07a1.82 1.58 30.7 0 0-.95.17c-3.59 1.89-.37 3.7 1.72 3.98 13.56 1.84 17.64 15.77 22.28 27.04q21.29 51.7 42.87 103.29.97 2.32 2.36 4.36 1.87 2.76 3.47-.13 1.46-2.64 2.63-5.42 11.43-27.15 22.79-54.07m501.6-79.14c-4.75 2.98 4.08 4.37 5.09 4.62 11.45 2.94 11.03 10.97 11.04 20.98q.1 54.83-.14 84.87c-.04 4.53-.56 14.65-4.86 17.34-.7.43-13.83 2.74-8.15 5.86a1.8 1.41-27.9 0 0 .94.17q21.45-2.02 42.89-.13c1.72.15 3.96-.7 2.26-2.82a1.51 1.31-11.3 0 0-.83-.47c-16.08-2.94-17.11-7.43-17.25-22.83q-.19-20.85.22-35.01c.11-3.81 2.04-4.66 5.47-4.68q30.78-.13 62.36.01 2.94.01 2.99 2.95.4 20.4.01 41.57c-.17 9.5-1.76 16.39-11.87 17.95a1.29 1.04 9.2 0 0-.81.46c-1.54 2.1.25 3.17 2.25 2.96q19.43-1.99 38.86-.1c1.94.19 6.25-1.19 2.59-3.27q-1.33-.76-2.87-.84c-11.09-.63-12.97-8.31-12.98-17.49q-.06-45.77 0-91.52c.01-8.59 1.02-15.27 10.27-16.73 1.86-.29 4.66-1.69 1.82-3.66a1.43 1.29-28 0 0-.92-.23q-18.65 1.85-37.28-.08c-1.88-.2-4.25.19-3.15 2.79a1.08.96-2.5 0 0 .7.57c11.43 2.95 13.61 8.36 13.58 19.61l-.06 32.69c0 3.55-.26 5.25-4.24 5.26q-30.97.12-61.94 0c-5.24-.02-4.7-2.85-4.84-7.23q-.61-18.87.08-37.72c.3-8.27 4.45-10.4 11.73-12.37a1.58 1.38 7.7 0 0 .79-.52c2.13-2.89-1.29-3.11-3.09-2.95q-19.85 1.77-39.73-.21a1.6 1.31 27.2 0 0-.93.2m424.12 35.44q1.48 32.28 2.68 64.6.39 10.34-.01 18.39-.45 9.21-8.94 11.39c-4.43 1.15-2.94 4.39.9 4q18.72-1.89 37.43-.06 2.07.2 3.45-1.2a.96.85 29.8 0 0-.5-1.46c-9.53-3.13-16.39-1.53-16.96-14.48q-1.99-45.49-2.85-91.02c-.13-7.01.23-17.32 6.92-20.17.53-.23 11.67-2.08 6.87-5.32a1.41 1.19-28.4 0 0-.91-.19q-9.35 1.33-19.45.84-3.03-.14-4.3 2.6L1091.1 907.7q-1.15 2.5-2.3 0-22.89-49.57-45.56-99.6c-1.88-4.16-3.83-8.68-9.4-7.81q-10.88 1.71-21.77-.2a1.47 1.15 29.6 0 0-.94.14q-2.28 1.31-.33 3.14a1.7 1.25-12.6 0 0 .87.38c24.55 3.19 20.92 34.1 20.28 51.27-.62 16.49-1.57 32.97-2.19 49.46-.36 9.83-.72 22.04-12.25 25.23-1.83.51-5.65 1.79-1.88 4.07a1.56 1.4-29.7 0 0 .92.2q17.81-1.95 35.62.03c4.09.46 4.57-3.07.19-3.48-12.76-1.17-14.78-11.23-14.58-22.11q.62-34.48 2.66-68.53.07-1.04.5-.09 20.43 44.23 41.39 88.22c1.41 2.95 4.34 6.19 6.65 1.18q19.78-42.86 35.51-75.15c2.97-6.1 6.7-12.35 10.02-18.56q.39-.72.43.1M343.8 870.76q1.52-.87 4.45-.87 12.78 0 25.56.22c8.41.14 11.75 4.33 13 12.23.42 2.69 2.58 5.54 4.99 2.12a1.43 1.29 62 0 0 .23-.92q-1.64-15.17.2-32.15.17-1.65-.96-2.86-1.4-1.49-2.93-.01c-1.41 1.36-2.07 5.53-2.75 7.57q-.87 2.63-3.47 3.58c-9.3 3.39-21.78 2.62-35.22 2.25-2.65-.07-4.74.17-4.76-2.98q-.14-19.74-.4-39.48c-.04-3.52-.28-10.95 4.76-11.24q12.19-.71 31.72.05c9.76.37 18.19 3.39 16.38 15.32a1.22 1.1-61.3 0 0 .21.89c2.61 3.49 4.65.23 4.94-2.45q1.01-9.43 1.89-18.37.27-2.7-2.44-2.58-43.14 1.87-86.25-.04-3.73-.17-3.6 1.88.14 2.16 2.3 2.17c9.44.03 13.12 2.83 14.48 12.23 1.08 7.41.63 15.07.62 21.92q-.07 35.1.04 70.19c.02 7.1.63 12.67-3.01 17.03-2.12 2.54-5.9 3.14-9.06 4.14a1.15.98-.3 0 0-.69.6c-.95 2.36 1.19 2.74 2.95 2.63q30.66-1.92 61.25.82c6.69.59 13.47.02 18.72-2.95 6.14-3.47 15.62-13.81 15.05-22.17a1.25 1.17-73.5 0 0-.42-.84q-1.98-1.64-3.57.61c-12.73 18-39.37 19-58.94 17.15-6-.56-7.08-5.31-7.09-10.2q-.07-20.97-.24-41.94-.01-2.38 2.06-3.55m115.03-.04c1.29-.76 4.25-.64 5.76-.67q21.48-.43 26.42.18 8.8 1.09 10.51 11.86.25 1.6 1.18 2.94c2.02 2.91 4.55-.05 4.23-3.03q-1.52-14.44.3-30.24.21-1.86-.94-3.34-1.01-1.3-2.56-.2-1.75 1.24-2.05 3.37-1.12 7.96-7.32 9.14c-10.26 1.96-21.68 1.42-32.12 1.2-2.74-.06-5.16.17-5.2-2.98q-.16-13.06-.02-45.14c.02-4.48 2.76-5.53 6.85-5.65q14.67-.45 29.35.1c8.9.33 17.37 2.72 16.52 13.64-.16 2.02.75 5.47 3.31 3.75q1.57-1.06 1.73-2.93.76-8.89 1.54-16.5c.26-2.46.79-5.22-2.38-5.11q-47.42 1.65-86.13.03-3.84-.16-3.48 1.95.33 1.94 2.3 1.96c16.01.13 15.3 12.29 15.32 24.2.03 27.52-.47 51.09.15 74.61q.27 10.14-.61 16.39c-.94 6.72-4.42 8.2-10.55 9.89-4.27 1.18-1.89 3.85 1.34 3.65q28.64-1.79 57.21.56 10.47.87 14.52.03c10.59-2.18 19.51-10.72 22.68-21.21 1.45-4.81-1.36-7.1-4.6-2.6-11.68 16.2-38.07 17.5-55.83 16-10.47-.88-9.43-7.27-9.46-15.57q-.06-18.35-.03-36.69 0-2.39 2.06-3.59m75.61-41.91a1.33 1.33-69.3 0 0 1.85-.84c3.02-10.7 4.08-17.55 17.26-17.85q14-.32 28.74.02 2.59.06 3.03 2.61.36 2.11.37 5 .12 49.53.03 99.06-.02 11.54-10.91 12.94-2.56.33-4.35 1.08a.98.9-8.3 0 0-.57.7c-.33 2.04 1.38 2.44 3.07 2.3 12.51-1.05 27.29-1.97 39.69.03 1.58.25 3.79-.28 3.07-2.35a1.16 1.01 4.6 0 0-.64-.65c-2.22-.9-4.89-1.19-6.77-2.03-9.12-4.09-8.46-11.01-8.49-21.1q-.15-44.83.14-89.67.02-3.15.32-5.14.41-2.75 3.19-2.8 18.38-.34 35.77.29c6.56.23 8.48 4.89 9.56 10.54.43 2.26 2.33 4.91 4.09 1.25a1.77 1.47 57.5 0 0 .12-.95c-1.03-6.2-.4-12.77-1.91-18.73a.9.88-89.5 0 0-.61-.63q-3.13-.88-4.49-.88-51.85-.03-103.7.01c-4.24 0-6.51.49-6.44 5.23q.09 6.29-2.82 19.25-.54 2.39 1.4 3.31m683.54 41.84c3.32-1.87 22.8-.68 27.68-.55 10.25.27 14.34 3.3 15.34 13.72q.23 2.33 2.56 2.17 2.52-.16 2.28-2.73-1.44-15.01.39-32.02a3.27 3.24 25.2 0 0-.98-2.69c-3.51-3.39-5.14 6.11-5.82 7.88q-.91 2.37-3.28 3.23c-10.5 3.83-26.1 2.52-37.47 2.21q-2.35-.07-2.51-2.42c-.94-14.05-.06-28.56-.24-42.7-.05-3.95.49-8.31 4.58-8.54q12.48-.68 31.69.05c9.61.36 18.09 3.28 16.39 15.06a1.4 1.15-61.7 0 0 .18.92c2.47 3.92 4.7.5 4.98-2.23q.97-9.31 1.87-18.16.3-2.89-2.6-2.76-43.11 1.89-86.61-.04-1.8-.07-2.85 1.39c-1.4 1.95 1.53 2.68 3.02 2.59 14.76-.82 14.61 14.77 14.5 24.97q-.43 40.75-.22 81.5c.03 5.27.36 11.62-3.7 15.6-1.95 1.9-5.25 2.47-7.95 3.26a1.56 1.26 4.8 0 0-.78.53c-2.05 2.85 1.29 3.03 3.05 2.92q29.01-1.81 57.95.6 9.6.81 13.63-.04c10.56-2.23 19.74-10.87 22.7-21.51 1.31-4.69-1.51-6.58-4.53-2.46-12.41 16.93-39.51 17.84-58.16 15.93-7.98-.81-6.96-8.13-7.23-14.66-.51-12.24.2-24.62-.17-36.93q-.08-2.74 2.31-4.09"/><path vector-effect="non-scaling-stroke" d="M925.23 805.05c-78.1-1.96-60.97 133.03 14.1 124.64 37.05-4.13 50.27-43.37 43.31-75.12-6.09-27.76-28.69-48.8-57.41-49.52"/></g><path fill="#fff" d="M0 0h1299v950H0V0Zm652.06 134.63-.1-58.09a.51.51 89.8 0 0-.51-.51l-88.93.02a.51.5 90 0 0-.5.51l-.01 165.67a1.41 1.35 65.9 0 1-.32.89L189.23 687.44q-.45.54.26.54l50.97-.02a1.1 1.07-69.4 0 0 .83-.39L803.7 16.65q.33-.38-.18-.4-25.53-.57-51.07-.09a1.11 1.05 18.1 0 0-.82.39l-99.11 118.24q-.46.55-.46-.16ZM957.52 16.45c-187.75 223.63-375.39 447.34-562.98 671.1q-.38.45.21.45h129.56a.61.6 20 0 0 .46-.21l563.2-671.33q.37-.43-.2-.43l-129.42.04a1.1 1.06 19.4 0 0-.83.38ZM940 447.27a.27.27 0 0 0-.27-.27h-83.46a.27.27 0 0 0-.27.27v83.46a.27.27 0 0 0 .27.27h83.46a.27.27 0 0 0 .27-.27v-83.46Zm120 0a.27.27 0 0 0-.27-.27h-83.46a.27.27 0 0 0-.27.27v83.46a.27.27 0 0 0 .27.27h83.46a.27.27 0 0 0 .27-.27v-83.46Zm-120 128a.27.27 0 0 0-.27-.27h-83.46a.27.27 0 0 0-.27.27v83.46a.27.27 0 0 0 .27.27h83.46a.27.27 0 0 0 .27-.27v-83.46Zm120 0a.27.27 0 0 0-.27-.27h-83.46a.27.27 0 0 0-.27.27v83.46a.27.27 0 0 0 .27.27h83.46a.27.27 0 0 0 .27-.27v-83.46ZM20.97 895.67c-5.34-3.08-2.51 7.71-2.06 9.4q2.65 9.86 5.17 19.68.63 2.45 2.92 3.52 17.84 8.29 36.9 6.12c39.45-4.48 55.62-50.93 17.92-71.88-7.78-4.32-15.75-6.41-23.98-9.53-5.41-2.05-11.9-4.08-16.03-6.97-18.54-12.93-10.46-40.02 12.26-40.92 13.93-.56 31.29 6.8 37.15 20.42 1.24 2.89 2.51 7.18 4.4 8.25q1.52.85 2.16-.34 1-1.84.64-3.89-2.24-12.81-3.52-24.72-.13-1.23-1.71-1.73a1.15.91-49.1 0 0-.88.17l-3.14 2.15a1.14 1.1 33.5 0 1-.91.17c-4.09-.94-8.22-3.33-11.48-4.29-25.31-7.48-59.9 5.1-55.85 37.31 3.16 25.11 32.45 31.7 52.06 38.93 3.99 1.47 9.68 4.06 12.85 7.42 11.02 11.7 8.5 28.11-3.74 37.46-13.08 9.99-31.47 8.08-44.27-1.75-8.62-6.63-12.13-13.52-15.77-23.67a2.5 2.44 5.9 0 0-1.09-1.31ZM863.49 890c6.62 22.16 25.83 38.72 48.44 43.2 31.99 6.33 63.04-4.51 78.44-33.66 8.04-15.2 10.02-35.1 6.11-51.52-11.38-47.75-68.36-60.93-106.28-37.74-26.73 16.34-35.26 51.11-26.71 79.72Zm-654.27-10.71q.37-.88.75 0 12.16 28.46 24.62 56.79c3.55 8.07 7.93-3.21 9.47-6.77 17.2-39.67 33.99-79.57 51.68-119.02q2.14-4.76 6.87-6.64c3.51-1.39 2.27-3.95-1-3.55q-15.21 1.9-30.43.05c-3.59-.44-3.37 2.56-.07 3.29q3.31.73 6.61 2.13 2.91 1.24 3.26 4.38c.18 1.68-.38 4.67-.99 6.61-9.65 30.97-22.92 64.05-35.66 93.01q-.66 1.51-1.49 2.7-1.23 1.75-2.33-.08-1.58-2.6-2.68-5.26-9.77-23.53-19.48-47.26a2.19 2.15 45.4 0 1 0-1.63q9.55-23.51 19.44-46.48 2.9-6.72 9.49-8.19a1.4 1.17 7.2 0 0 .79-.51c1.74-2.52-1.34-2.94-3.03-2.71q-12.6 1.74-25.17.02c-1.49-.21-4.55-.2-3.48 2.17a1.29 1.08.8 0 0 .72.62c5.57 1.89 11.52 1.87 9.44 10.1-3.1 12.3-7.83 23.05-12.93 34.14q-.31.68-.59-.01-5.46-13.65-10.7-27.22c-2.99-7.71-4.6-13.23 4.25-16.84a1.44 1.12-3.7 0 0 .71-.63c1.03-2.24-1.64-2.52-3.16-2.39-12.87 1.16-23.85.54-36.02-.01-1.76-.08-5.37.05-3.77 2.83a1.36 1.15-3.6 0 0 .75.56c4.86 1.39 11.53 1.39 14.58 5.83q1.55 2.26 4.61 9.27 10.53 24.11 20.56 48.46a1.2 1.16 45.8 0 1 0 .91l-17.82 42.32a1.1.85-80.7 0 1-.67.62c-2.93.63-31.86-74.67-35.38-83.6q-3.34-8.48-4.97-14.47c-1.62-6.01 1.65-7.53 6.52-9.19a1.43 1.14.9 0 0 .74-.57c1.26-2.09-.54-3.12-2.47-2.93q-19.35 1.86-38.74-.07a1.82 1.58 30.7 0 0-.95.17c-3.59 1.89-.37 3.7 1.72 3.98 13.56 1.84 17.64 15.77 22.28 27.04q21.29 51.7 42.87 103.29.97 2.32 2.36 4.36 1.87 2.76 3.47-.13 1.46-2.64 2.63-5.42 11.43-27.15 22.79-54.07Zm501.6-79.14c-4.75 2.98 4.08 4.37 5.09 4.62 11.45 2.94 11.03 10.97 11.04 20.98q.1 54.83-.14 84.87c-.04 4.53-.56 14.65-4.86 17.34-.7.43-13.83 2.74-8.15 5.86a1.8 1.41-27.9 0 0 .94.17q21.45-2.02 42.89-.13c1.72.15 3.96-.7 2.26-2.82a1.51 1.31-11.3 0 0-.83-.47c-16.08-2.94-17.11-7.43-17.25-22.83q-.19-20.85.22-35.01c.11-3.81 2.04-4.66 5.47-4.68q30.78-.13 62.36.01 2.94.01 2.99 2.95.4 20.4.01 41.57c-.17 9.5-1.76 16.39-11.87 17.95a1.29 1.04 9.2 0 0-.81.46c-1.54 2.1.25 3.17 2.25 2.96q19.43-1.99 38.86-.1c1.94.19 6.25-1.19 2.59-3.27q-1.33-.76-2.87-.84c-11.09-.63-12.97-8.31-12.98-17.49q-.06-45.77 0-91.52c.01-8.59 1.02-15.27 10.27-16.73 1.86-.29 4.66-1.69 1.82-3.66a1.43 1.29-28 0 0-.92-.23q-18.65 1.85-37.28-.08c-1.88-.2-4.25.19-3.15 2.79a1.08.96-2.5 0 0 .7.57c11.43 2.95 13.61 8.36 13.58 19.61l-.06 32.69c0 3.55-.26 5.25-4.24 5.26q-30.97.12-61.94 0c-5.24-.02-4.7-2.85-4.84-7.23q-.61-18.87.08-37.72c.3-8.27 4.45-10.4 11.73-12.37a1.58 1.38 7.7 0 0 .79-.52c2.13-2.89-1.29-3.11-3.09-2.95q-19.85 1.77-39.73-.21a1.6 1.31 27.2 0 0-.93.2Zm424.12 35.44q1.48 32.28 2.68 64.6.39 10.34-.01 18.39-.45 9.21-8.94 11.39c-4.43 1.15-2.94 4.39.9 4q18.72-1.89 37.43-.06 2.07.2 3.45-1.2a.96.85 29.8 0 0-.5-1.46c-9.53-3.13-16.39-1.53-16.96-14.48q-1.99-45.49-2.85-91.02c-.13-7.01.23-17.32 6.92-20.17.53-.23 11.67-2.08 6.87-5.32a1.41 1.19-28.4 0 0-.91-.19q-9.35 1.33-19.45.84-3.03-.14-4.3 2.6L1091.1 907.7q-1.15 2.5-2.3 0-22.89-49.57-45.56-99.6c-1.88-4.16-3.83-8.68-9.4-7.81q-10.88 1.71-21.77-.2a1.47 1.15 29.6 0 0-.94.14q-2.28 1.31-.33 3.14a1.7 1.25-12.6 0 0 .87.38c24.55 3.19 20.92 34.1 20.28 51.27-.62 16.49-1.57 32.97-2.19 49.46-.36 9.83-.72 22.04-12.25 25.23-1.83.51-5.65 1.79-1.88 4.07a1.56 1.4-29.7 0 0 .92.2q17.81-1.95 35.62.03c4.09.46 4.57-3.07.19-3.48-12.76-1.17-14.78-11.23-14.58-22.11q.62-34.48 2.66-68.53.07-1.04.5-.09 20.43 44.23 41.39 88.22c1.41 2.95 4.34 6.19 6.65 1.18q19.78-42.86 35.51-75.15c2.97-6.1 6.7-12.35 10.02-18.56q.39-.72.43.1ZM343.8 870.76q1.52-.87 4.45-.87 12.78 0 25.56.22c8.41.14 11.75 4.33 13 12.23.42 2.69 2.58 5.54 4.99 2.12a1.43 1.29 62 0 0 .23-.92q-1.64-15.17.2-32.15.17-1.65-.96-2.86-1.4-1.49-2.93-.01c-1.41 1.36-2.07 5.53-2.75 7.57q-.87 2.63-3.47 3.58c-9.3 3.39-21.78 2.62-35.22 2.25-2.65-.07-4.74.17-4.76-2.98q-.14-19.74-.4-39.48c-.04-3.52-.28-10.95 4.76-11.24q12.19-.71 31.72.05c9.76.37 18.19 3.39 16.38 15.32a1.22 1.1-61.3 0 0 .21.89c2.61 3.49 4.65.23 4.94-2.45q1.01-9.43 1.89-18.37.27-2.7-2.44-2.58-43.14 1.87-86.25-.04-3.73-.17-3.6 1.88.14 2.16 2.3 2.17c9.44.03 13.12 2.83 14.48 12.23 1.08 7.41.63 15.07.62 21.92q-.07 35.1.04 70.19c.02 7.1.63 12.67-3.01 17.03-2.12 2.54-5.9 3.14-9.06 4.14a1.15.98-.3 0 0-.69.6c-.95 2.36 1.19 2.74 2.95 2.63q30.66-1.92 61.25.82c6.69.59 13.47.02 18.72-2.95 6.14-3.47 15.62-13.81 15.05-22.17a1.25 1.17-73.5 0 0-.42-.84q-1.98-1.64-3.57.61c-12.73 18-39.37 19-58.94 17.15-6-.56-7.08-5.31-7.09-10.2q-.07-20.97-.24-41.94-.01-2.38 2.06-3.55Zm115.03-.04c1.29-.76 4.25-.64 5.76-.67q21.48-.43 26.42.18 8.8 1.09 10.51 11.86.25 1.6 1.18 2.94c2.02 2.91 4.55-.05 4.23-3.03q-1.52-14.44.3-30.24.21-1.86-.94-3.34-1.01-1.3-2.56-.2-1.75 1.24-2.05 3.37-1.12 7.96-7.32 9.14c-10.26 1.96-21.68 1.42-32.12 1.2-2.74-.06-5.16.17-5.2-2.98q-.16-13.06-.02-45.14c.02-4.48 2.76-5.53 6.85-5.65q14.67-.45 29.35.1c8.9.33 17.37 2.72 16.52 13.64-.16 2.02.75 5.47 3.31 3.75q1.57-1.06 1.73-2.93.76-8.89 1.54-16.5c.26-2.46.79-5.22-2.38-5.11q-47.42 1.65-86.13.03-3.84-.16-3.48 1.95.33 1.94 2.3 1.96c16.01.13 15.3 12.29 15.32 24.2.03 27.52-.47 51.09.15 74.61q.27 10.14-.61 16.39c-.94 6.72-4.42 8.2-10.55 9.89-4.27 1.18-1.89 3.85 1.34 3.65q28.64-1.79 57.21.56 10.47.87 14.52.03c10.59-2.18 19.51-10.72 22.68-21.21 1.45-4.81-1.36-7.1-4.6-2.6-11.68 16.2-38.07 17.5-55.83 16-10.47-.88-9.43-7.27-9.46-15.57q-.06-18.35-.03-36.69 0-2.39 2.06-3.59Zm75.61-41.91a1.33 1.33-69.3 0 0 1.85-.84c3.02-10.7 4.08-17.55 17.26-17.85q14-.32 28.74.02 2.59.06 3.03 2.61.36 2.11.37 5 .12 49.53.03 99.06-.02 11.54-10.91 12.94-2.56.33-4.35 1.08a.98.9-8.3 0 0-.57.7c-.33 2.04 1.38 2.44 3.07 2.3 12.51-1.05 27.29-1.97 39.69.03 1.58.25 3.79-.28 3.07-2.35a1.16 1.01 4.6 0 0-.64-.65c-2.22-.9-4.89-1.19-6.77-2.03-9.12-4.09-8.46-11.01-8.49-21.1q-.15-44.83.14-89.67.02-3.15.32-5.14.41-2.75 3.19-2.8 18.38-.34 35.77.29c6.56.23 8.48 4.89 9.56 10.54.43 2.26 2.33 4.91 4.09 1.25a1.77 1.47 57.5 0 0 .12-.95c-1.03-6.2-.4-12.77-1.91-18.73a.9.88-89.5 0 0-.61-.63q-3.13-.88-4.49-.88-51.85-.03-103.7.01c-4.24 0-6.51.49-6.44 5.23q.09 6.29-2.82 19.25-.54 2.39 1.4 3.31Zm683.54 41.84c3.32-1.87 22.8-.68 27.68-.55 10.25.27 14.34 3.3 15.34 13.72q.23 2.33 2.56 2.17 2.52-.16 2.28-2.73-1.44-15.01.39-32.02a3.27 3.24 25.2 0 0-.98-2.69c-3.51-3.39-5.14 6.11-5.82 7.88q-.91 2.37-3.28 3.23c-10.5 3.83-26.1 2.52-37.47 2.21q-2.35-.07-2.51-2.42c-.94-14.05-.06-28.56-.24-42.7-.05-3.95.49-8.31 4.58-8.54q12.48-.68 31.69.05c9.61.36 18.09 3.28 16.39 15.06a1.4 1.15-61.7 0 0 .18.92c2.47 3.92 4.7.5 4.98-2.23q.97-9.31 1.87-18.16.3-2.89-2.6-2.76-43.11 1.89-86.61-.04-1.8-.07-2.85 1.39c-1.4 1.95 1.53 2.68 3.02 2.59 14.76-.82 14.61 14.77 14.5 24.97q-.43 40.75-.22 81.5c.03 5.27.36 11.62-3.7 15.6-1.95 1.9-5.25 2.47-7.95 3.26a1.56 1.26 4.8 0 0-.78.53c-2.05 2.85 1.29 3.03 3.05 2.92q29.01-1.81 57.95.6 9.6.81 13.63-.04c10.56-2.23 19.74-10.87 22.7-21.51 1.31-4.69-1.51-6.58-4.53-2.46-12.41 16.93-39.51 17.84-58.16 15.93-7.98-.81-6.96-8.13-7.23-14.66-.51-12.24.2-24.62-.17-36.93q-.08-2.74 2.31-4.09Z"/><path d="M652.06 134.63q0 .71.46.16l99.11-118.24a1.11 1.05 18.1 0 1 .82-.39q25.54-.48 51.07.09.51.02.18.4L241.29 687.57a1.1 1.07-69.4 0 1-.83.39l-50.97.02q-.71 0-.26-.54l372.46-444.32a1.41 1.35 65.9 0 0 .32-.89l.01-165.67a.51.5-90 0 1 .5-.51l88.93-.02a.51.51-89.6 0 1 .51.51l.1 58.09ZM394.54 687.55c187.59-223.76 375.23-447.47 562.98-671.1a1.1 1.06 19.4 0 1 .83-.38l129.42-.04q.57 0 .2.43l-563.2 671.33a.61.6 20 0 1-.46.21H394.75q-.59 0-.21-.45Z"/><rect x="856" y="447" width="84" height="84" rx=".27"/><rect x="976" y="447" width="84" height="84" rx=".27"/><rect x="856" y="575" width="84" height="84" rx=".27"/><rect x="976" y="575" width="84" height="84" rx=".27"/><path d="M20.97 895.67a2.5 2.44 5.9 0 1 1.09 1.31c3.64 10.15 7.15 17.04 15.77 23.67 12.8 9.83 31.19 11.74 44.27 1.75 12.24-9.35 14.76-25.76 3.74-37.46-3.17-3.36-8.86-5.95-12.85-7.42-19.61-7.23-48.9-13.82-52.06-38.93-4.05-32.21 30.54-44.79 55.85-37.31 3.26.96 7.39 3.35 11.48 4.29a1.14 1.1 33.5 0 0 .91-.17l3.14-2.15a1.15.91-49.1 0 1 .88-.17q1.58.5 1.71 1.73 1.28 11.91 3.52 24.72.36 2.05-.64 3.89-.64 1.19-2.16.34c-1.89-1.07-3.16-5.36-4.4-8.25-5.86-13.62-23.22-20.98-37.15-20.42-22.72.9-30.8 27.99-12.26 40.92 4.13 2.89 10.62 4.92 16.03 6.97 8.23 3.12 16.2 5.21 23.98 9.53 37.7 20.95 21.53 67.4-17.92 71.88q-19.06 2.17-36.9-6.12-2.29-1.07-2.92-3.52-2.52-9.82-5.17-19.68c-.45-1.69-3.28-12.48 2.06-9.4Zm890.96 37.53c-22.61-4.48-41.82-21.04-48.44-43.2-8.55-28.61-.02-63.38 26.71-79.72 37.92-23.19 94.9-10.01 106.28 37.74 3.91 16.42 1.93 36.32-6.11 51.52-15.4 29.15-46.45 39.99-78.44 33.66Zm13.3-128.15c-78.1-1.96-60.97 133.03 14.1 124.64 37.05-4.13 50.27-43.37 43.31-75.12-6.09-27.76-28.69-48.8-57.41-49.52Zm-716.01 74.24q-11.36 26.92-22.79 54.07-1.17 2.78-2.63 5.42-1.6 2.89-3.47.13-1.39-2.04-2.36-4.36-21.58-51.59-42.87-103.29c-4.64-11.27-8.72-25.2-22.28-27.04-2.09-.28-5.31-2.09-1.72-3.98a1.82 1.58 30.7 0 1 .95-.17q19.39 1.93 38.74.07c1.93-.19 3.73.84 2.47 2.93a1.43 1.14.9 0 1-.74.57c-4.87 1.66-8.14 3.18-6.52 9.19q1.63 5.99 4.97 14.47c3.52 8.93 32.45 84.23 35.38 83.6a1.1.85-80.7 0 0 .67-.62l17.82-42.32a1.2 1.16 45.8 0 0 0-.91q-10.03-24.35-20.56-48.46-3.06-7.01-4.61-9.27c-3.05-4.44-9.72-4.44-14.58-5.83a1.36 1.15-3.6 0 1-.75-.56c-1.6-2.78 2.01-2.91 3.77-2.83 12.17.55 23.15 1.17 36.02.01 1.52-.13 4.19.15 3.16 2.39a1.44 1.12-3.7 0 1-.71.63c-8.85 3.61-7.24 9.13-4.25 16.84q5.24 13.57 10.7 27.22.28.69.59.01c5.1-11.09 9.83-21.84 12.93-34.14 2.08-8.23-3.87-8.21-9.44-10.1a1.29 1.08.8 0 1-.72-.62c-1.07-2.37 1.99-2.38 3.48-2.17q12.57 1.72 25.17-.02c1.69-.23 4.77.19 3.03 2.71a1.4 1.17 7.2 0 1-.79.51q-6.59 1.47-9.49 8.19-9.89 22.97-19.44 46.48a2.19 2.15 45.4 0 0 0 1.63q9.71 23.73 19.48 47.26 1.1 2.66 2.68 5.26 1.1 1.83 2.33.08.83-1.19 1.49-2.7c12.74-28.96 26.01-62.04 35.66-93.01.61-1.94 1.17-4.93.99-6.61q-.35-3.14-3.26-4.38-3.3-1.4-6.61-2.13c-3.3-.73-3.52-3.73.07-3.29q15.22 1.85 30.43-.05c3.27-.4 4.51 2.16 1 3.55q-4.73 1.88-6.87 6.64c-17.69 39.45-34.48 79.35-51.68 119.02-1.54 3.56-5.92 14.84-9.47 6.77q-12.46-28.33-24.62-56.79-.38-.88-.75 0Zm506.69-74.52c-1.01-.25-9.84-1.64-5.09-4.62a1.6 1.31 27.2 0 1 .93-.2q19.88 1.98 39.73.21c1.8-.16 5.22.06 3.09 2.95a1.58 1.38 7.7 0 1-.79.52c-7.28 1.97-11.43 4.1-11.73 12.37q-.69 18.85-.08 37.72c.14 4.38-.4 7.21 4.84 7.23q30.97.12 61.94 0c3.98-.01 4.24-1.71 4.24-5.26l.06-32.69c.03-11.25-2.15-16.66-13.58-19.61a1.08.96-2.5 0 1-.7-.57c-1.1-2.6 1.27-2.99 3.15-2.79q18.63 1.93 37.28.08a1.43 1.29-28 0 1 .92.23c2.84 1.97.04 3.37-1.82 3.66-9.25 1.46-10.26 8.14-10.27 16.73q-.06 45.75 0 91.52c.01 9.18 1.89 16.86 12.98 17.49q1.54.08 2.87.84c3.66 2.08-.65 3.46-2.59 3.27q-19.43-1.89-38.86.1c-2 .21-3.79-.86-2.25-2.96a1.29 1.04 9.2 0 1 .81-.46c10.11-1.56 11.7-8.45 11.87-17.95q.39-21.17-.01-41.57-.05-2.94-2.99-2.95-31.58-.14-62.36-.01c-3.43.02-5.36.87-5.47 4.68q-.41 14.16-.22 35.01c.14 15.4 1.17 19.89 17.25 22.83a1.51 1.31-11.3 0 1 .83.47c1.7 2.12-.54 2.97-2.26 2.82q-21.44-1.89-42.89.13a1.8 1.41-27.9 0 1-.94-.17c-5.68-3.12 7.45-5.43 8.15-5.86 4.3-2.69 4.82-12.81 4.86-17.34q.24-30.04.14-84.87c-.01-10.01.41-18.04-11.04-20.98Zm419.03 30.82q-.04-.82-.43-.1c-3.32 6.21-7.05 12.46-10.02 18.56q-15.73 32.29-35.51 75.15c-2.31 5.01-5.24 1.77-6.65-1.18q-20.96-43.99-41.39-88.22-.43-.95-.5.09-2.04 34.05-2.66 68.53c-.2 10.88 1.82 20.94 14.58 22.11 4.38.41 3.9 3.94-.19 3.48q-17.81-1.98-35.62-.03a1.56 1.4-29.7 0 1-.92-.2c-3.77-2.28.05-3.56 1.88-4.07 11.53-3.19 11.89-15.4 12.25-25.23.62-16.49 1.57-32.97 2.19-49.46.64-17.17 4.27-48.08-20.28-51.27a1.7 1.25-12.6 0 1-.87-.38q-1.95-1.83.33-3.14a1.47 1.15 29.6 0 1 .94-.14q10.89 1.91 21.77.2c5.57-.87 7.52 3.65 9.4 7.81q22.67 50.03 45.56 99.6 1.15 2.5 2.3 0l48.17-104.19q1.27-2.74 4.3-2.6 10.1.49 19.45-.84a1.41 1.19-28.4 0 1 .91.19c4.8 3.24-6.34 5.09-6.87 5.32-6.69 2.85-7.05 13.16-6.92 20.17q.86 45.53 2.85 91.02c.57 12.95 7.43 11.35 16.96 14.48a.96.85 29.8 0 1 .5 1.46q-1.38 1.4-3.45 1.2-18.71-1.83-37.43.06c-3.84.39-5.33-2.85-.9-4q8.49-2.18 8.94-11.39.4-8.05.01-18.39-1.2-32.32-2.68-64.6ZM343.8 870.76q-2.07 1.17-2.06 3.55.17 20.97.24 41.94c.01 4.89 1.09 9.64 7.09 10.2 19.57 1.85 46.21.85 58.94-17.15q1.59-2.25 3.57-.61a1.25 1.17-73.5 0 1 .42.84c.57 8.36-8.91 18.7-15.05 22.17-5.25 2.97-12.03 3.54-18.72 2.95q-30.59-2.74-61.25-.82c-1.76.11-3.9-.27-2.95-2.63a1.15.98-.3 0 1 .69-.6c3.16-1 6.94-1.6 9.06-4.14 3.64-4.36 3.03-9.93 3.01-17.03q-.11-35.09-.04-70.19c.01-6.85.46-14.51-.62-21.92-1.36-9.4-5.04-12.2-14.48-12.23q-2.16-.01-2.3-2.17-.13-2.05 3.6-1.88 43.11 1.91 86.25.04 2.71-.12 2.44 2.58-.88 8.94-1.89 18.37c-.29 2.68-2.33 5.94-4.94 2.45a1.22 1.1-61.3 0 1-.21-.89c1.81-11.93-6.62-14.95-16.38-15.32q-19.53-.76-31.72-.05c-5.04.29-4.8 7.72-4.76 11.24q.26 19.74.4 39.48c.02 3.15 2.11 2.91 4.76 2.98 13.44.37 25.92 1.14 35.22-2.25q2.6-.95 3.47-3.58c.68-2.04 1.34-6.21 2.75-7.57q1.53-1.48 2.93.01 1.13 1.21.96 2.86-1.84 16.98-.2 32.15a1.43 1.29 62 0 1-.23.92c-2.41 3.42-4.57.57-4.99-2.12-1.25-7.9-4.59-12.09-13-12.23q-12.78-.22-25.56-.22-2.93 0-4.45.87Zm115.03-.04q-2.06 1.2-2.06 3.59-.03 18.34.03 36.69c.03 8.3-1.01 14.69 9.46 15.57 17.76 1.5 44.15.2 55.83-16 3.24-4.5 6.05-2.21 4.6 2.6-3.17 10.49-12.09 19.03-22.68 21.21q-4.05.84-14.52-.03-28.57-2.35-57.21-.56c-3.23.2-5.61-2.47-1.34-3.65 6.13-1.69 9.61-3.17 10.55-9.89q.88-6.25.61-16.39c-.62-23.52-.12-47.09-.15-74.61-.02-11.91.69-24.07-15.32-24.2q-1.97-.02-2.3-1.96-.36-2.11 3.48-1.95 38.71 1.62 86.13-.03c3.17-.11 2.64 2.65 2.38 5.11q-.78 7.61-1.54 16.5-.16 1.87-1.73 2.93c-2.56 1.72-3.47-1.73-3.31-3.75.85-10.92-7.62-13.31-16.52-13.64q-14.68-.55-29.35-.1c-4.09.12-6.83 1.17-6.85 5.65q-.14 32.08.02 45.14c.04 3.15 2.46 2.92 5.2 2.98 10.44.22 21.86.76 32.12-1.2q6.2-1.18 7.32-9.14.3-2.13 2.05-3.37 1.55-1.1 2.56.2 1.15 1.48.94 3.34-1.82 15.8-.3 30.24c.32 2.98-2.21 5.94-4.23 3.03q-.93-1.34-1.18-2.94-1.71-10.77-10.51-11.86-4.94-.61-26.42-.18c-1.51.03-4.47-.09-5.76.67Zm75.61-41.91q-1.94-.92-1.4-3.31 2.91-12.96 2.82-19.25c-.07-4.74 2.2-5.23 6.44-5.23q51.85-.04 103.7-.01 1.36 0 4.49.88a.9.88-89.5 0 1 .61.63c1.51 5.96.88 12.53 1.91 18.73a1.77 1.47 57.5 0 1-.12.95c-1.76 3.66-3.66 1.01-4.09-1.25-1.08-5.65-3-10.31-9.56-10.54q-17.39-.63-35.77-.29-2.78.05-3.19 2.8-.3 1.99-.32 5.14-.29 44.84-.14 89.67c.03 10.09-.63 17.01 8.49 21.1 1.88.84 4.55 1.13 6.77 2.03a1.16 1.01 4.6 0 1 .64.65c.72 2.07-1.49 2.6-3.07 2.35-12.4-2-27.18-1.08-39.69-.03-1.69.14-3.4-.26-3.07-2.3a.98.9-8.3 0 1 .57-.7q1.79-.75 4.35-1.08 10.89-1.4 10.91-12.94.09-49.53-.03-99.06-.01-2.89-.37-5-.44-2.55-3.03-2.61-14.74-.34-28.74-.02c-13.18.3-14.24 7.15-17.26 17.85a1.33 1.33-69.3 0 1-1.85.84Zm683.54 41.84q-2.39 1.35-2.31 4.09c.37 12.31-.34 24.69.17 36.93.27 6.53-.75 13.85 7.23 14.66 18.65 1.91 45.75 1 58.16-15.93 3.02-4.12 5.84-2.23 4.53 2.46-2.96 10.64-12.14 19.28-22.7 21.51q-4.03.85-13.63.04-28.94-2.41-57.95-.6c-1.76.11-5.1-.07-3.05-2.92a1.56 1.26 4.8 0 1 .78-.53c2.7-.79 6-1.36 7.95-3.26 4.06-3.98 3.73-10.33 3.7-15.6q-.21-40.75.22-81.5c.11-10.2.26-25.79-14.5-24.97-1.49.09-4.42-.64-3.02-2.59q1.05-1.46 2.85-1.39 43.5 1.93 86.61.04 2.9-.13 2.6 2.76-.9 8.85-1.87 18.16c-.28 2.73-2.51 6.15-4.98 2.23a1.4 1.15-61.7 0 1-.18-.92c1.7-11.78-6.78-14.7-16.39-15.06q-19.21-.73-31.69-.05c-4.09.23-4.63 4.59-4.58 8.54.18 14.14-.7 28.65.24 42.7q.16 2.35 2.51 2.42c11.37.31 26.97 1.62 37.47-2.21q2.37-.86 3.28-3.23c.68-1.77 2.31-11.27 5.82-7.88a3.27 3.24 25.2 0 1 .98 2.69q-1.83 17.01-.39 32.02.24 2.57-2.28 2.73-2.33.16-2.56-2.17c-1-10.42-5.09-13.45-15.34-13.72-4.88-.13-24.36-1.32-27.68.55Z"/><path fill="#fff" d="M939.33 929.69c-75.07 8.39-92.2-126.6-14.1-124.64 28.72.72 51.32 21.76 57.41 49.52 6.96 31.75-6.26 70.99-43.31 75.12Z"/></svg>